# xmcd
#
# Track frame offsets: 
#        150
#        3975
#        16056
#        46885
#        57894
#        71451
#        85952
#        107902
#        120396
#        151688
#        163638
#        183367
#        207195
#        214472
#        243836
#
# Disc length: 3480 seconds
#
# Revision: 0
# Processed by: cddbd v1.5.2PL0 Copyright (c) Steve Scherf et al.
# Submitted via: ExactAudioCopy v0.99pb5
#
DISCID=b90d960f
DTITLE=The Guess Who  - Budokan, Tokyo -11-20- 72 - Disc 1
DYEAR=1900
DGENRE=
TTITLE0=Introduction
TTITLE1=Bus Rider
TTITLE2=Pain Train
TTITLE3=Albert Flasher
TTITLE4=Japanese segment
TTITLE5=Samantha's Living Room
TTITLE6=New Mother Nature
TTITLE7=Bye Bye Babe
TTITLE8=Runnin' Back To Saskatoon
TTITLE9=Rain Dance
TTITLE10=These Eyes
TTITLE11=Guns, Guns, Guns
TTITLE12=Interlude
TTITLE13=Heartbroken Bopper
TTITLE14=Lost And Found Town
EXTD=
EXTT0=
EXTT1=
EXTT2=
EXTT3=
EXTT4=
EXTT5=
EXTT6=
EXTT7=
EXTT8=
EXTT9=
EXTT10=
EXTT11=
EXTT12=
EXTT13=
EXTT14=
PLAYORDER=
